<mxfile host="app.diagrams.net" agent="Mozilla/5.0 (Windows NT 10.0; Win64; x64) AppleWebKit/537.36 (KHTML, like Gecko) Chrome/126.0.0.0 Safari/537.36 OPR/112.0.0.0" version="24.7.10" pages="2">
  <diagram name="Modulo de alimentacion" id="Y9_49UCqUVnqr2mQ7oe9">
    <mxGraphModel dx="1035" dy="517" grid="1" gridSize="10" guides="1" tooltips="1" connect="1" arrows="1" fold="1" page="1" pageScale="1" pageWidth="827" pageHeight="1169" math="0" shadow="0">
      <root>
        <mxCell id="0" />
        <mxCell id="1" parent="0" />
        <mxCell id="nPxMI3wkcNo-XMpQiCZf-1" value="Admin" style="shape=umlActor;verticalLabelPosition=bottom;verticalAlign=top;html=1;outlineConnect=0;" vertex="1" parent="1">
          <mxGeometry x="80" y="240" width="30" height="60" as="geometry" />
        </mxCell>
        <mxCell id="nPxMI3wkcNo-XMpQiCZf-4" value="" style="rounded=0;whiteSpace=wrap;html=1;" vertex="1" parent="1">
          <mxGeometry x="150" y="70" width="400" height="300" as="geometry" />
        </mxCell>
        <mxCell id="nPxMI3wkcNo-XMpQiCZf-18" style="rounded=0;orthogonalLoop=1;jettySize=auto;html=1;entryX=0;entryY=0.5;entryDx=0;entryDy=0;endArrow=none;endFill=0;exitX=1;exitY=0.5;exitDx=0;exitDy=0;" edge="1" parent="1" source="nPxMI3wkcNo-XMpQiCZf-22" target="nPxMI3wkcNo-XMpQiCZf-20">
          <mxGeometry relative="1" as="geometry">
            <mxPoint x="320.58563685564604" y="145.55074364413906" as="sourcePoint" />
            <mxPoint x="370" y="159.9999999999999" as="targetPoint" />
          </mxGeometry>
        </mxCell>
        <mxCell id="nPxMI3wkcNo-XMpQiCZf-37" value="Include" style="edgeLabel;html=1;align=center;verticalAlign=middle;resizable=0;points=[];" vertex="1" connectable="0" parent="nPxMI3wkcNo-XMpQiCZf-18">
          <mxGeometry x="-0.0121" y="1" relative="1" as="geometry">
            <mxPoint as="offset" />
          </mxGeometry>
        </mxCell>
        <mxCell id="nPxMI3wkcNo-XMpQiCZf-10" value="Alimentacion" style="text;html=1;align=center;verticalAlign=middle;resizable=0;points=[];autosize=1;strokeColor=none;fillColor=none;" vertex="1" parent="1">
          <mxGeometry x="360" y="70" width="90" height="30" as="geometry" />
        </mxCell>
        <mxCell id="nPxMI3wkcNo-XMpQiCZf-19" style="rounded=0;orthogonalLoop=1;jettySize=auto;html=1;endArrow=none;endFill=0;exitX=1;exitY=0.5;exitDx=0;exitDy=0;entryX=0;entryY=0.5;entryDx=0;entryDy=0;" edge="1" parent="1" source="nPxMI3wkcNo-XMpQiCZf-22" target="nPxMI3wkcNo-XMpQiCZf-21">
          <mxGeometry relative="1" as="geometry">
            <mxPoint x="370" y="160" as="targetPoint" />
            <mxPoint x="315.55539614192026" y="187.22230192903987" as="sourcePoint" />
          </mxGeometry>
        </mxCell>
        <mxCell id="nPxMI3wkcNo-XMpQiCZf-38" value="Include" style="edgeLabel;html=1;align=center;verticalAlign=middle;resizable=0;points=[];" vertex="1" connectable="0" parent="nPxMI3wkcNo-XMpQiCZf-19">
          <mxGeometry x="-0.0241" relative="1" as="geometry">
            <mxPoint as="offset" />
          </mxGeometry>
        </mxCell>
        <mxCell id="nPxMI3wkcNo-XMpQiCZf-13" value="Editar los planes alimenticios" style="ellipse;whiteSpace=wrap;html=1;" vertex="1" parent="1">
          <mxGeometry x="200" y="220" width="130" height="60" as="geometry" />
        </mxCell>
        <mxCell id="nPxMI3wkcNo-XMpQiCZf-14" style="rounded=0;orthogonalLoop=1;jettySize=auto;html=1;entryX=0.5;entryY=0.5;entryDx=0;entryDy=0;entryPerimeter=0;endArrow=none;endFill=0;" edge="1" parent="1" source="nPxMI3wkcNo-XMpQiCZf-13" target="nPxMI3wkcNo-XMpQiCZf-1">
          <mxGeometry relative="1" as="geometry" />
        </mxCell>
        <mxCell id="nPxMI3wkcNo-XMpQiCZf-20" value="Ingresar diferentes tipo de alimentación y dieta" style="ellipse;whiteSpace=wrap;html=1;" vertex="1" parent="1">
          <mxGeometry x="380" y="100" width="130" height="60" as="geometry" />
        </mxCell>
        <mxCell id="nPxMI3wkcNo-XMpQiCZf-21" value="Ingreso de tipos de comida junto a los valores nutricionales" style="ellipse;whiteSpace=wrap;html=1;" vertex="1" parent="1">
          <mxGeometry x="375" y="170" width="140" height="60" as="geometry" />
        </mxCell>
        <mxCell id="nPxMI3wkcNo-XMpQiCZf-22" value="Crear planes alimenticios&amp;nbsp;" style="ellipse;whiteSpace=wrap;html=1;" vertex="1" parent="1">
          <mxGeometry x="190" y="130" width="130" height="60" as="geometry" />
        </mxCell>
        <mxCell id="nPxMI3wkcNo-XMpQiCZf-23" style="rounded=0;orthogonalLoop=1;jettySize=auto;html=1;entryX=0.5;entryY=0.5;entryDx=0;entryDy=0;entryPerimeter=0;endArrow=none;endFill=0;exitX=0;exitY=0.5;exitDx=0;exitDy=0;" edge="1" parent="1" source="nPxMI3wkcNo-XMpQiCZf-22" target="nPxMI3wkcNo-XMpQiCZf-1">
          <mxGeometry relative="1" as="geometry">
            <mxPoint x="222" y="293" as="sourcePoint" />
            <mxPoint x="105" y="280" as="targetPoint" />
          </mxGeometry>
        </mxCell>
        <mxCell id="nPxMI3wkcNo-XMpQiCZf-24" value="Usuario" style="shape=umlActor;verticalLabelPosition=bottom;verticalAlign=top;html=1;outlineConnect=0;" vertex="1" parent="1">
          <mxGeometry x="70" y="540" width="30" height="60" as="geometry" />
        </mxCell>
        <mxCell id="nPxMI3wkcNo-XMpQiCZf-25" value="" style="rounded=0;whiteSpace=wrap;html=1;" vertex="1" parent="1">
          <mxGeometry x="150" y="400" width="400" height="300" as="geometry" />
        </mxCell>
        <mxCell id="nPxMI3wkcNo-XMpQiCZf-26" style="rounded=0;orthogonalLoop=1;jettySize=auto;html=1;entryX=0;entryY=0.5;entryDx=0;entryDy=0;endArrow=none;endFill=0;exitX=1;exitY=0.5;exitDx=0;exitDy=0;" edge="1" parent="1" source="nPxMI3wkcNo-XMpQiCZf-33" target="nPxMI3wkcNo-XMpQiCZf-31">
          <mxGeometry relative="1" as="geometry">
            <mxPoint x="320.58563685564604" y="475.55074364413906" as="sourcePoint" />
            <mxPoint x="370" y="489.9999999999999" as="targetPoint" />
          </mxGeometry>
        </mxCell>
        <mxCell id="nPxMI3wkcNo-XMpQiCZf-39" value="Include" style="edgeLabel;html=1;align=center;verticalAlign=middle;resizable=0;points=[];" vertex="1" connectable="0" parent="nPxMI3wkcNo-XMpQiCZf-26">
          <mxGeometry x="-0.1061" y="-2" relative="1" as="geometry">
            <mxPoint as="offset" />
          </mxGeometry>
        </mxCell>
        <mxCell id="nPxMI3wkcNo-XMpQiCZf-27" value="Alimentacion" style="text;html=1;align=center;verticalAlign=middle;resizable=0;points=[];autosize=1;strokeColor=none;fillColor=none;" vertex="1" parent="1">
          <mxGeometry x="360" y="400" width="90" height="30" as="geometry" />
        </mxCell>
        <mxCell id="nPxMI3wkcNo-XMpQiCZf-28" style="rounded=0;orthogonalLoop=1;jettySize=auto;html=1;endArrow=none;endFill=0;exitX=1;exitY=0.5;exitDx=0;exitDy=0;entryX=0;entryY=0.5;entryDx=0;entryDy=0;" edge="1" parent="1" source="nPxMI3wkcNo-XMpQiCZf-33" target="nPxMI3wkcNo-XMpQiCZf-32">
          <mxGeometry relative="1" as="geometry">
            <mxPoint x="370" y="490" as="targetPoint" />
            <mxPoint x="315.55539614192026" y="517.2223019290399" as="sourcePoint" />
          </mxGeometry>
        </mxCell>
        <mxCell id="nPxMI3wkcNo-XMpQiCZf-40" value="Include" style="edgeLabel;html=1;align=center;verticalAlign=middle;resizable=0;points=[];" vertex="1" connectable="0" parent="nPxMI3wkcNo-XMpQiCZf-28">
          <mxGeometry x="0.0874" y="-1" relative="1" as="geometry">
            <mxPoint as="offset" />
          </mxGeometry>
        </mxCell>
        <mxCell id="nPxMI3wkcNo-XMpQiCZf-31" value="visualizar diferentes tipo de alimentación y dieta" style="ellipse;whiteSpace=wrap;html=1;" vertex="1" parent="1">
          <mxGeometry x="380" y="480" width="130" height="60" as="geometry" />
        </mxCell>
        <mxCell id="nPxMI3wkcNo-XMpQiCZf-32" value="Visualizar diferentes tipos de comida junto a los valores nutricionales" style="ellipse;whiteSpace=wrap;html=1;" vertex="1" parent="1">
          <mxGeometry x="370" y="590" width="140" height="60" as="geometry" />
        </mxCell>
        <mxCell id="nPxMI3wkcNo-XMpQiCZf-33" value="Ingresar a los planes alimenticios&amp;nbsp;" style="ellipse;whiteSpace=wrap;html=1;" vertex="1" parent="1">
          <mxGeometry x="190" y="540" width="130" height="60" as="geometry" />
        </mxCell>
        <mxCell id="nPxMI3wkcNo-XMpQiCZf-34" style="rounded=0;orthogonalLoop=1;jettySize=auto;html=1;entryX=0.5;entryY=0.5;entryDx=0;entryDy=0;entryPerimeter=0;endArrow=none;endFill=0;exitX=0;exitY=0.5;exitDx=0;exitDy=0;" edge="1" parent="1" source="nPxMI3wkcNo-XMpQiCZf-33" target="nPxMI3wkcNo-XMpQiCZf-24">
          <mxGeometry relative="1" as="geometry">
            <mxPoint x="222" y="623" as="sourcePoint" />
            <mxPoint x="105" y="610" as="targetPoint" />
          </mxGeometry>
        </mxCell>
        <mxCell id="mcQbwOSwxkG12lWvDMeZ-1" value="Eliminar los planes alimenticios" style="ellipse;whiteSpace=wrap;html=1;" vertex="1" parent="1">
          <mxGeometry x="200" y="300" width="130" height="60" as="geometry" />
        </mxCell>
        <mxCell id="mcQbwOSwxkG12lWvDMeZ-2" style="rounded=0;orthogonalLoop=1;jettySize=auto;html=1;entryX=0.5;entryY=0.5;entryDx=0;entryDy=0;entryPerimeter=0;endArrow=none;endFill=0;" edge="1" parent="1" source="mcQbwOSwxkG12lWvDMeZ-1" target="nPxMI3wkcNo-XMpQiCZf-1">
          <mxGeometry relative="1" as="geometry" />
        </mxCell>
      </root>
    </mxGraphModel>
  </diagram>
  <diagram id="QGj_bYD7GHpiojGqfTrt" name="Modulo de ejercicio">
    <mxGraphModel dx="1035" dy="517" grid="1" gridSize="10" guides="1" tooltips="1" connect="1" arrows="1" fold="1" page="1" pageScale="1" pageWidth="827" pageHeight="1169" math="0" shadow="0">
      <root>
        <mxCell id="0" />
        <mxCell id="1" parent="0" />
        <mxCell id="Fmhu9_QlMBXMhTP7pr70-1" value="Admin" style="shape=umlActor;verticalLabelPosition=bottom;verticalAlign=top;html=1;outlineConnect=0;" vertex="1" parent="1">
          <mxGeometry x="80" y="240" width="30" height="60" as="geometry" />
        </mxCell>
        <mxCell id="Fmhu9_QlMBXMhTP7pr70-2" value="" style="rounded=0;whiteSpace=wrap;html=1;" vertex="1" parent="1">
          <mxGeometry x="150" y="70" width="420" height="260" as="geometry" />
        </mxCell>
        <mxCell id="Fmhu9_QlMBXMhTP7pr70-3" style="rounded=0;orthogonalLoop=1;jettySize=auto;html=1;entryX=0;entryY=0.5;entryDx=0;entryDy=0;endArrow=none;endFill=0;exitX=1;exitY=0.5;exitDx=0;exitDy=0;" edge="1" parent="1" source="Fmhu9_QlMBXMhTP7pr70-13" target="Fmhu9_QlMBXMhTP7pr70-11">
          <mxGeometry relative="1" as="geometry">
            <mxPoint x="320.58563685564604" y="145.55074364413906" as="sourcePoint" />
            <mxPoint x="370" y="159.9999999999999" as="targetPoint" />
          </mxGeometry>
        </mxCell>
        <mxCell id="Fmhu9_QlMBXMhTP7pr70-4" value="Include" style="edgeLabel;html=1;align=center;verticalAlign=middle;resizable=0;points=[];" vertex="1" connectable="0" parent="Fmhu9_QlMBXMhTP7pr70-3">
          <mxGeometry x="-0.0121" y="1" relative="1" as="geometry">
            <mxPoint as="offset" />
          </mxGeometry>
        </mxCell>
        <mxCell id="Fmhu9_QlMBXMhTP7pr70-5" value="Ejercicio" style="text;html=1;align=center;verticalAlign=middle;resizable=0;points=[];autosize=1;strokeColor=none;fillColor=none;" vertex="1" parent="1">
          <mxGeometry x="370" y="70" width="70" height="30" as="geometry" />
        </mxCell>
        <mxCell id="Fmhu9_QlMBXMhTP7pr70-6" style="rounded=0;orthogonalLoop=1;jettySize=auto;html=1;endArrow=none;endFill=0;exitX=1;exitY=0.5;exitDx=0;exitDy=0;entryX=0;entryY=0.5;entryDx=0;entryDy=0;" edge="1" parent="1" source="Fmhu9_QlMBXMhTP7pr70-13" target="Fmhu9_QlMBXMhTP7pr70-12">
          <mxGeometry relative="1" as="geometry">
            <mxPoint x="370" y="160" as="targetPoint" />
            <mxPoint x="315.55539614192026" y="187.22230192903987" as="sourcePoint" />
          </mxGeometry>
        </mxCell>
        <mxCell id="Fmhu9_QlMBXMhTP7pr70-7" value="Include" style="edgeLabel;html=1;align=center;verticalAlign=middle;resizable=0;points=[];" vertex="1" connectable="0" parent="Fmhu9_QlMBXMhTP7pr70-6">
          <mxGeometry x="-0.0241" relative="1" as="geometry">
            <mxPoint as="offset" />
          </mxGeometry>
        </mxCell>
        <mxCell id="Fmhu9_QlMBXMhTP7pr70-8" value="Editar los planes ejercicio" style="ellipse;whiteSpace=wrap;html=1;" vertex="1" parent="1">
          <mxGeometry x="190" y="180" width="130" height="60" as="geometry" />
        </mxCell>
        <mxCell id="Fmhu9_QlMBXMhTP7pr70-9" style="rounded=0;orthogonalLoop=1;jettySize=auto;html=1;entryX=0.5;entryY=0.5;entryDx=0;entryDy=0;entryPerimeter=0;endArrow=none;endFill=0;exitX=0;exitY=0.5;exitDx=0;exitDy=0;" edge="1" parent="1" source="Fmhu9_QlMBXMhTP7pr70-8" target="Fmhu9_QlMBXMhTP7pr70-1">
          <mxGeometry relative="1" as="geometry" />
        </mxCell>
        <mxCell id="Fmhu9_QlMBXMhTP7pr70-11" value="Ingresar diferentes tipo ejercicios" style="ellipse;whiteSpace=wrap;html=1;" vertex="1" parent="1">
          <mxGeometry x="380" y="100" width="130" height="60" as="geometry" />
        </mxCell>
        <mxCell id="Fmhu9_QlMBXMhTP7pr70-12" value="Ingreso de ejercicios focalizados&amp;nbsp;" style="ellipse;whiteSpace=wrap;html=1;" vertex="1" parent="1">
          <mxGeometry x="375" y="190" width="140" height="60" as="geometry" />
        </mxCell>
        <mxCell id="Fmhu9_QlMBXMhTP7pr70-13" value="Crear planes de ejercicios" style="ellipse;whiteSpace=wrap;html=1;" vertex="1" parent="1">
          <mxGeometry x="190" y="90" width="130" height="60" as="geometry" />
        </mxCell>
        <mxCell id="Fmhu9_QlMBXMhTP7pr70-14" style="rounded=0;orthogonalLoop=1;jettySize=auto;html=1;entryX=0.5;entryY=0.5;entryDx=0;entryDy=0;entryPerimeter=0;endArrow=none;endFill=0;exitX=0;exitY=0.5;exitDx=0;exitDy=0;" edge="1" parent="1" source="Fmhu9_QlMBXMhTP7pr70-13" target="Fmhu9_QlMBXMhTP7pr70-1">
          <mxGeometry relative="1" as="geometry">
            <mxPoint x="222" y="293" as="sourcePoint" />
            <mxPoint x="105" y="280" as="targetPoint" />
          </mxGeometry>
        </mxCell>
        <mxCell id="ESXKGA-oPVWq_Fi_7t_F-12" value="Usario" style="shape=umlActor;verticalLabelPosition=bottom;verticalAlign=top;html=1;outlineConnect=0;" vertex="1" parent="1">
          <mxGeometry x="90" y="470" width="30" height="60" as="geometry" />
        </mxCell>
        <mxCell id="ESXKGA-oPVWq_Fi_7t_F-13" value="" style="rounded=0;whiteSpace=wrap;html=1;" vertex="1" parent="1">
          <mxGeometry x="150" y="370" width="420" height="260" as="geometry" />
        </mxCell>
        <mxCell id="ESXKGA-oPVWq_Fi_7t_F-14" style="rounded=0;orthogonalLoop=1;jettySize=auto;html=1;entryX=0;entryY=0.5;entryDx=0;entryDy=0;endArrow=none;endFill=0;exitX=1;exitY=0.5;exitDx=0;exitDy=0;" edge="1" parent="1" source="ESXKGA-oPVWq_Fi_7t_F-24" target="ESXKGA-oPVWq_Fi_7t_F-22">
          <mxGeometry relative="1" as="geometry">
            <mxPoint x="320.58563685564604" y="445.55074364413906" as="sourcePoint" />
            <mxPoint x="370" y="459.9999999999999" as="targetPoint" />
          </mxGeometry>
        </mxCell>
        <mxCell id="ESXKGA-oPVWq_Fi_7t_F-15" value="Extend" style="edgeLabel;html=1;align=center;verticalAlign=middle;resizable=0;points=[];" vertex="1" connectable="0" parent="ESXKGA-oPVWq_Fi_7t_F-14">
          <mxGeometry x="-0.0121" y="1" relative="1" as="geometry">
            <mxPoint as="offset" />
          </mxGeometry>
        </mxCell>
        <mxCell id="ESXKGA-oPVWq_Fi_7t_F-16" value="Ejercicio" style="text;html=1;align=center;verticalAlign=middle;resizable=0;points=[];autosize=1;strokeColor=none;fillColor=none;" vertex="1" parent="1">
          <mxGeometry x="370" y="370" width="70" height="30" as="geometry" />
        </mxCell>
        <mxCell id="ESXKGA-oPVWq_Fi_7t_F-17" style="rounded=0;orthogonalLoop=1;jettySize=auto;html=1;endArrow=none;endFill=0;exitX=1;exitY=0.5;exitDx=0;exitDy=0;entryX=0;entryY=0.5;entryDx=0;entryDy=0;" edge="1" parent="1">
          <mxGeometry relative="1" as="geometry">
            <mxPoint x="375" y="560" as="targetPoint" />
            <mxPoint x="310" y="500.0000000000001" as="sourcePoint" />
          </mxGeometry>
        </mxCell>
        <mxCell id="ESXKGA-oPVWq_Fi_7t_F-18" value="Extend" style="edgeLabel;html=1;align=center;verticalAlign=middle;resizable=0;points=[];" vertex="1" connectable="0" parent="ESXKGA-oPVWq_Fi_7t_F-17">
          <mxGeometry x="-0.0241" relative="1" as="geometry">
            <mxPoint as="offset" />
          </mxGeometry>
        </mxCell>
        <mxCell id="ESXKGA-oPVWq_Fi_7t_F-22" value="Visualiza diferentes tipo ejercicios" style="ellipse;whiteSpace=wrap;html=1;" vertex="1" parent="1">
          <mxGeometry x="380" y="420" width="130" height="60" as="geometry" />
        </mxCell>
        <mxCell id="ESXKGA-oPVWq_Fi_7t_F-23" value="Visualiza de ejercicios focalizados&amp;nbsp;" style="ellipse;whiteSpace=wrap;html=1;" vertex="1" parent="1">
          <mxGeometry x="375" y="530" width="140" height="60" as="geometry" />
        </mxCell>
        <mxCell id="ESXKGA-oPVWq_Fi_7t_F-24" value="Ingresar a planes de ejercicios" style="ellipse;whiteSpace=wrap;html=1;" vertex="1" parent="1">
          <mxGeometry x="180" y="470" width="130" height="60" as="geometry" />
        </mxCell>
        <mxCell id="ESXKGA-oPVWq_Fi_7t_F-25" style="rounded=0;orthogonalLoop=1;jettySize=auto;html=1;entryX=0.5;entryY=0.5;entryDx=0;entryDy=0;entryPerimeter=0;endArrow=none;endFill=0;exitX=0;exitY=0.5;exitDx=0;exitDy=0;" edge="1" parent="1" source="ESXKGA-oPVWq_Fi_7t_F-24" target="ESXKGA-oPVWq_Fi_7t_F-12">
          <mxGeometry relative="1" as="geometry">
            <mxPoint x="222" y="593" as="sourcePoint" />
            <mxPoint x="105" y="580" as="targetPoint" />
          </mxGeometry>
        </mxCell>
        <mxCell id="ESXKGA-oPVWq_Fi_7t_F-26" value="Eliminar los planes de ejercicio" style="ellipse;whiteSpace=wrap;html=1;" vertex="1" parent="1">
          <mxGeometry x="190" y="260" width="130" height="60" as="geometry" />
        </mxCell>
        <mxCell id="ESXKGA-oPVWq_Fi_7t_F-27" style="rounded=0;orthogonalLoop=1;jettySize=auto;html=1;entryX=0.5;entryY=0.5;entryDx=0;entryDy=0;entryPerimeter=0;endArrow=none;endFill=0;exitX=0;exitY=0.5;exitDx=0;exitDy=0;" edge="1" parent="1" source="ESXKGA-oPVWq_Fi_7t_F-26" target="Fmhu9_QlMBXMhTP7pr70-1">
          <mxGeometry relative="1" as="geometry" />
        </mxCell>
      </root>
    </mxGraphModel>
  </diagram>
</mxfile>
